<?xml version="1.0" encoding="UTF-8" standalone="no"?>
<!-- Copyright (C) 2019 Hector Castro
    This Scalable Vector Graphics is free software: you can redistribute it and/or modify
    it under the terms of the GNU General Public License as published by
    the Free Software Foundation, either version 3 of the License, or
    (at your option) any later version.

    This SVG is distributed in the hope that it will be useful,
    but WITHOUT ANY WARRANTY; without even the implied warranty of
    MERCHANTABILITY or FITNESS FOR A PARTICULAR PURPOSE. See the
    GNU General Public License for more details.

    You should have received a copy of the GNU General Public License
    along with this SVG.  If not, see <https://www.gnu.org/licenses/>. -->
<svg xmlns="http://www.w3.org/2000/svg" width="48" height="48" viewBox="0 0 48 48" fill="rgba(12, 12, 13, .8)" fill-opacity="context-fill-opacity"><line x1="1" y1="1" x2="1" y2="47" style="stroke:rgba(12, 12, 13, .8);stroke-width:3" /><line x1="6" y1="1" x2="6" y2="41" style="stroke:rgba(12, 12, 13, .8);stroke-width:1" /><line x1="9" y1="1" x2="9" y2="41" style="stroke:rgba(12, 12, 13, .8);stroke-width:1" /><line x1="12" y1="1" x2="12" y2="41" style="stroke:rgba(12, 12, 13, .8);stroke-width:1" /><line x1="15" y1="1" x2="15" y2="41" style="stroke:rgba(12, 12, 13, .8);stroke-width:1" /><line x1="18" y1="1" x2="18" y2="41" style="stroke:rgba(12, 12, 13, .8);stroke-width:1" /><line x1="21" y1="1" x2="21" y2="41" style="stroke:rgba(12, 12, 13, .8);stroke-width:3" /><line x1="24" y1="1" x2="24" y2="41" style="stroke:rgba(12, 12, 13, .8);stroke-width:1" /><line x1="27" y1="1" x2="27" y2="41" style="stroke:rgba(12, 12, 13, .8);stroke-width:1" /><line x1="30" y1="1" x2="30" y2="41" style="stroke:rgba(12, 12, 13, .8);stroke-width:1" /><line x1="33" y1="1" x2="33" y2="41" style="stroke:rgba(12, 12, 13, .8);stroke-width:1" /><line x1="36" y1="1" x2="36" y2="41" style="stroke:rgba(12, 12, 13, .8);stroke-width:1" /><line x1="39" y1="1" x2="39" y2="41" style="stroke:rgba(12, 12, 13, .8);stroke-width:1" /><line x1="43" y1="1" x2="43" y2="41" style="stroke:rgba(12, 12, 13, .8);stroke-width:2" /><line x1="47" y1="1" x2="47" y2="47" style="stroke:rgba(12, 12, 13, .8);stroke-width:3" /><text fill="#000000" font-family="Cantarell" font-size="11pt" x="0pt" y="7.8pt" transform="matrix(0.488184 0 0 0.451312 5.37647 41.7882)"><tspan x="0"  y="9.7">0949999075</tspan></text></svg>
